<?xml version="1.0" standalone="no"?>
<!DOCTYPE svg PUBLIC "-//W3C//DTD SVG 20010904//EN"
 "http://www.w3.org/TR/2001/REC-SVG-20010904/DTD/svg10.dtd">
<svg version="1.0" xmlns="http://www.w3.org/2000/svg"
 width="1940.000000pt" height="697.000000pt" viewBox="0 0 1940.000000 697.000000"
 preserveAspectRatio="xMidYMid meet">

<g transform="translate(0.000000,697.000000) scale(0.100000,-0.100000)"
fill="#000000" stroke="none">
<path d="M3190 6253 c-1126 -87 -2096 -890 -2396 -1982 -74 -271 -99 -484 -91
-790 10 -409 92 -741 272 -1106 395 -805 1136 -1348 2032 -1490 136 -22 432
-31 506 -16 267 56 459 333 418 602 -28 177 -158 351 -295 395 -37 12 -112 19
-271 24 -239 8 -346 25 -524 82 -421 134 -775 437 -971 833 -77 155 -117 268
-152 425 -20 92 -23 132 -22 330 0 194 3 239 22 325 50 229 153 467 279 645
87 121 262 296 383 383 113 80 319 185 447 227 558 184 1158 68 1610 -311 199
-167 379 -419 469 -655 64 -169 9 -330 -138 -403 -52 -27 -72 -31 -138 -31
-66 0 -86 4 -138 31 -79 39 -103 69 -168 207 -69 145 -136 242 -237 339 -206
197 -447 295 -727 295 -280 1 -527 -97 -731 -289 -436 -411 -440 -1102 -8
-1523 127 -124 296 -219 477 -267 85 -23 117 -26 257 -26 141 -1 171 2 257 26
170 45 319 126 457 246 l64 56 -384 5 -384 5 -57 28 c-67 33 -112 80 -146 155
-21 47 -24 64 -20 136 3 50 11 94 22 116 31 60 106 128 164 150 51 19 78 20
700 20 692 -1 682 0 758 -51 19 -13 52 -47 73 -74 104 -137 112 -231 34 -414
-95 -224 -221 -401 -419 -588 -142 -135 -170 -175 -199 -284 -19 -70 -19 -200
0 -272 37 -143 102 -221 527 -642 329 -327 361 -352 490 -392 84 -26 226 -22
314 9 265 93 416 364 354 633 -27 118 -62 169 -248 357 l-174 176 60 84 c442
609 601 1399 436 2158 -62 282 -218 648 -379 890 -374 560 -930 961 -1569
1130 -277 73 -615 105 -896 83z"/>
<path d="M15025 5701 c-50 -23 -108 -83 -132 -136 -17 -38 -18 -103 -21 -1069
-3 -1130 -5 -1088 57 -1173 59 -81 198 -119 292 -80 80 33 159 138 159 211 0
29 2 28 73 -40 83 -80 165 -133 253 -163 371 -124 780 52 957 411 121 246 139
573 46 853 -114 345 -413 565 -767 565 -187 0 -335 -63 -474 -201 l-88 -87 0
366 c0 404 0 404 -66 481 -62 74 -199 104 -289 62z m968 -1088 c205 -96 312
-357 252 -612 -82 -346 -471 -475 -720 -240 -99 93 -146 217 -147 385 -1 210
92 384 247 459 78 39 107 44 210 42 77 -2 100 -7 158 -34z"/>
<path d="M8075 5624 c-242 -43 -482 -163 -648 -327 -184 -182 -310 -431 -347
-686 -20 -133 -8 -394 23 -512 136 -519 528 -841 1082 -889 312 -27 637 48
914 210 98 57 132 89 172 162 l34 63 3 380 3 380 -28 55 c-31 61 -92 113 -151
130 -22 6 -174 10 -378 10 l-340 0 -55 -27 c-78 -40 -112 -93 -117 -183 -4
-60 -1 -74 24 -120 21 -39 41 -59 79 -81 l50 -29 208 0 207 0 0 -175 0 -175
-52 -30 c-127 -72 -254 -103 -428 -103 -147 -1 -215 15 -337 74 -238 117 -384
371 -385 669 0 137 21 230 82 355 85 174 230 305 403 361 70 23 100 27 202 28
189 1 316 -37 484 -143 72 -46 105 -61 146 -66 109 -14 219 45 265 142 18 39
21 60 18 124 -3 67 -7 83 -33 121 -42 58 -111 109 -230 168 -185 91 -378 131
-636 129 -85 0 -190 -7 -234 -15z"/>
<path d="M13045 5634 c-469 -70 -812 -323 -993 -732 -125 -283 -129 -647 -9
-945 186 -460 628 -748 1152 -750 241 0 463 56 646 164 27 16 55 29 62 29 7 0
50 -34 97 -75 113 -100 185 -124 279 -90 100 35 165 125 165 230 -1 92 -36
150 -147 239 l-47 39 31 51 c212 354 236 781 63 1155 -155 336 -468 579 -859
667 -68 15 -374 28 -440 18z m349 -490 c59 -15 164 -65 220 -103 93 -63 199
-197 247 -311 75 -177 77 -437 7 -610 l-13 -32 -154 137 c-84 75 -168 143
-187 151 -44 19 -136 18 -182 -2 -89 -37 -145 -124 -146 -224 0 -88 27 -134
130 -224 44 -39 109 -96 145 -127 l64 -56 -38 -17 c-132 -55 -357 -60 -502
-12 -118 40 -180 80 -276 175 -64 65 -96 106 -127 168 -180 349 -81 789 223
992 132 88 263 124 430 116 55 -3 127 -12 159 -21z"/>
<path d="M10433 5060 c-379 -82 -663 -361 -737 -722 -21 -101 -21 -295 0 -396
69 -335 317 -598 656 -696 523 -151 1066 114 1227 599 174 524 -125 1070 -660
1206 -125 31 -361 36 -486 9z m357 -440 c230 -67 372 -319 326 -577 -38 -216
-183 -363 -389 -395 -237 -36 -455 108 -526 347 -20 67 -23 93 -18 179 6 124
32 204 93 286 75 102 181 163 309 179 75 9 123 5 205 -19z"/>
<path d="M17695 5060 c-189 -22 -370 -73 -429 -122 -56 -46 -79 -99 -74 -174
5 -73 37 -129 96 -161 64 -36 101 -38 214 -9 119 30 292 46 393 36 199 -19
299 -112 319 -299 7 -63 7 -64 -16 -57 -167 49 -219 58 -373 63 -98 3 -189 1
-235 -6 -293 -45 -475 -189 -530 -421 -16 -68 -17 -218 -1 -285 45 -188 197
-333 411 -391 89 -25 300 -25 390 -1 101 27 222 91 290 154 46 42 60 51 60 36
0 -37 50 -120 88 -146 55 -38 90 -49 157 -49 105 -1 193 58 230 155 14 38 16
98 13 572 -4 508 -5 533 -26 608 -75 269 -241 421 -527 483 -86 18 -341 26
-450 14z m360 -1035 c38 -8 91 -22 117 -31 l48 -16 0 -77 c0 -96 -20 -157 -70
-213 -141 -161 -484 -172 -582 -19 -27 43 -29 52 -26 127 2 68 7 87 30 122 32
48 91 85 168 106 72 19 227 20 315 1z"/>
<path d="M9680 2349 c-30 -5 -88 -25 -128 -44 -346 -164 -350 -690 -6 -863
178 -89 435 -60 555 64 45 46 47 104 6 140 -40 34 -87 32 -145 -8 -62 -43
-106 -57 -176 -58 -82 0 -131 17 -186 67 -67 60 -95 126 -95 228 0 67 5 89 28
137 53 107 154 166 269 155 32 -3 76 -15 98 -26 130 -68 119 -65 161 -52 65
20 91 101 49 154 -30 37 -153 95 -230 107 -75 11 -123 11 -200 -1z"/>
<path d="M13373 2349 c-235 -39 -402 -236 -403 -474 0 -279 210 -485 495 -485
201 0 370 103 452 276 38 79 38 79 38 210 l0 130 -39 79 c-99 201 -309 303
-543 264z m226 -215 c162 -88 202 -319 79 -459 -106 -121 -294 -129 -406 -18
-107 108 -121 279 -32 400 81 110 237 144 359 77z"/>
<path d="M15690 2349 c-30 -5 -88 -25 -129 -44 -240 -114 -337 -407 -216 -652
100 -203 334 -304 573 -248 192 45 334 200 364 396 35 234 -97 453 -319 528
-72 24 -197 34 -273 20z m190 -195 c73 -21 150 -98 175 -174 29 -86 24 -167
-14 -245 -52 -104 -135 -155 -255 -155 -256 1 -378 330 -189 513 74 71 176 93
283 61z"/>
<path d="M17030 2349 c-169 -28 -319 -160 -370 -326 -24 -77 -27 -212 -6 -288
46 -175 183 -300 364 -336 132 -25 308 5 422 73 81 49 90 72 90 246 0 151 -9
190 -49 212 -11 5 -87 10 -173 10 -141 0 -156 -2 -176 -20 -29 -27 -37 -64
-22 -101 18 -42 37 -49 134 -49 l86 0 0 -70 c0 -82 -7 -89 -109 -116 -110 -28
-210 -2 -285 72 -52 53 -78 114 -84 199 -15 253 246 402 459 261 57 -38 119
-36 153 5 56 67 24 134 -91 187 -101 46 -221 61 -343 41z"/>
<path d="M10558 2321 l-33 -29 -3 -389 c-2 -213 0 -403 3 -422 9 -50 46 -81
95 -81 94 0 110 35 110 235 l0 145 190 0 190 0 0 -150 c0 -197 15 -230 108
-230 28 0 47 7 66 25 l26 24 0 421 0 422 -29 29 c-49 48 -126 35 -156 -26 -11
-25 -15 -68 -15 -179 l0 -146 -189 0 -190 0 -3 161 -3 161 -33 29 c-44 39 -90
39 -134 0z"/>
<path d="M11803 2336 c-17 -8 -36 -23 -42 -35 -7 -13 -11 -157 -11 -434 l0
-414 26 -27 c29 -28 87 -36 124 -16 41 22 45 45 50 319 l5 264 218 -285 c124
-162 228 -290 243 -296 56 -26 130 -5 152 43 9 19 12 136 12 421 0 434 -1 439
-59 464 -39 16 -92 6 -117 -21 -17 -19 -19 -44 -24 -287 l-5 -267 -205 269
c-113 148 -217 278 -231 288 -34 26 -96 32 -136 14z"/>
<path d="M14388 2321 l-33 -29 -3 -384 c-2 -211 0 -398 3 -417 4 -18 17 -44
30 -57 l24 -24 290 0 290 0 20 26 c12 15 21 41 21 60 0 87 -21 94 -269 94
l-200 0 -3 351 -3 351 -33 29 c-44 39 -90 39 -134 0z"/>
<path d="M17878 2334 c-34 -18 -48 -43 -48 -87 0 -36 9 -51 248 -373 l82 -112
0 -152 0 -152 29 -29 c41 -41 101 -41 142 0 l29 29 0 154 0 153 165 223 c174
236 182 253 154 315 -20 44 -85 60 -137 33 -16 -8 -79 -89 -152 -194 -69 -99
-128 -178 -131 -176 -3 2 -59 80 -124 174 -65 94 -129 180 -143 191 -29 22
-76 24 -114 3z"/>
<path d="M7109 2311 c-33 -33 -37 -67 -14 -111 19 -36 31 -39 170 -43 l110 -2
5 -358 5 -358 25 -19 c27 -21 90 -26 121 -10 46 25 49 47 49 410 l0 340 120 0
c115 0 122 1 145 25 28 27 34 88 12 116 -28 37 -49 39 -387 39 l-332 0 -29
-29z"/>
<path d="M8259 2311 l-29 -29 0 -402 c0 -410 2 -428 39 -457 12 -9 97 -12 321
-13 339 0 344 1 355 64 6 28 -10 82 -28 98 -1 1 -110 5 -242 8 l-240 5 0 100
0 100 203 5 c199 5 204 6 223 29 27 33 24 84 -5 118 l-24 28 -201 3 -201 3 0
95 0 94 221 0 c223 0 249 4 276 39 22 28 16 89 -12 116 l-24 25 -301 0 -302 0
-29 -29z"/>
</g>
</svg>
