<svg xmlns="http://www.w3.org/2000/svg" xmlns:xlink="http://www.w3.org/1999/xlink" width="146" height="42" viewBox="0 0 145 42"><defs><symbol overflow="visible" id="g"><path style="stroke:none" d="M15.938-.344a.281.281 0 0 1-.063.172c-.031.055-.094.094-.188.125a2.37 2.37 0 0 1-.374.078c-.149.02-.34.032-.579.032-.23 0-.421-.012-.578-.032a2.37 2.37 0 0 1-.375-.078.378.378 0 0 1-.187-.125.26.26 0 0 1-.063-.172v-10.25h-.015L9.89-.359a.586.586 0 0 1-.141.218.554.554 0 0 1-.234.125c-.094.032-.22.051-.375.063-.157.008-.344.015-.563.015a4.58 4.58 0 0 1-.562-.03 1.778 1.778 0 0 1-.375-.063.792.792 0 0 1-.25-.14.38.38 0 0 1-.11-.188L3.797-10.594h-.031v10.25a.281.281 0 0 1-.063.172c-.031.055-.094.094-.187.125a2.37 2.37 0 0 1-.375.078c-.149.02-.34.032-.579.032-.23 0-.421-.012-.578-.032a2.37 2.37 0 0 1-.375-.078c-.093-.031-.164-.07-.203-.125a.325.325 0 0 1-.047-.172v-11.234c0-.332.086-.582.266-.75a.933.933 0 0 1 .688-.266h1.671c.29 0 .54.028.75.078.22.043.407.121.563.235.156.117.285.265.39.453.102.18.192.406.266.687l2.703 7.5h.047l2.797-7.484c.082-.27.172-.5.266-.688.101-.187.222-.335.359-.453.133-.125.29-.207.469-.25.176-.05.383-.078.625-.078h1.719c.175 0 .328.024.453.063.125.043.222.11.296.203a.842.842 0 0 1 .188.328c.04.125.063.266.063.422Zm0 0"/></symbol><symbol overflow="visible" id="h"><path style="stroke:none" d="M9.188-4.922c0 .293-.07.512-.204.656-.136.149-.32.22-.546.22h-5.25c0 .366.039.698.124 1 .094.304.235.562.422.78.188.211.43.371.735.485.3.105.66.156 1.078.156.426 0 .8-.031 1.125-.094.32-.062.598-.129.828-.203.238-.07.438-.14.594-.203a1.08 1.08 0 0 1 .375-.094c.062 0 .11.012.14.031a.23.23 0 0 1 .094.126c.031.062.05.148.063.25a4.599 4.599 0 0 1 0 .766l-.032.265a.503.503 0 0 1-.062.172.443.443 0 0 1-.094.14c-.043.043-.156.106-.344.188-.187.074-.43.152-.718.234-.293.07-.625.133-1 .188a8.66 8.66 0 0 1-1.188.078c-.773 0-1.445-.094-2.016-.281A3.674 3.674 0 0 1 1.86-.954c-.386-.395-.671-.895-.859-1.5C.812-3.055.719-3.766.719-4.578c0-.77.097-1.461.297-2.078a4.326 4.326 0 0 1 .859-1.578 3.62 3.62 0 0 1 1.39-.985 4.8 4.8 0 0 1 1.844-.344c.727 0 1.348.11 1.86.329.508.21.926.507 1.25.89.332.375.578.824.734 1.344.156.512.235 1.074.235 1.688Zm-2.36-.703c.02-.688-.121-1.227-.422-1.625-.293-.395-.742-.594-1.343-.594-.313 0-.586.063-.813.188-.23.117-.422.273-.578.468a2.27 2.27 0 0 0-.344.704 3.116 3.116 0 0 0-.14.859Zm0 0"/></symbol><symbol overflow="visible" id="i"><path style="stroke:none" d="M9.39-.328a.351.351 0 0 1-.046.187.373.373 0 0 1-.172.11c-.074.031-.18.05-.313.062-.125.02-.289.032-.484.032-.2 0-.367-.012-.5-.032a1.223 1.223 0 0 1-.313-.062.353.353 0 0 1-.171-.11.351.351 0 0 1-.047-.187v-.969c-.45.48-.918.856-1.407 1.125a3.415 3.415 0 0 1-1.609.39c-.668 0-1.23-.124-1.687-.374a3.3 3.3 0 0 1-1.11-1.032 4.741 4.741 0 0 1-.625-1.53A8.755 8.755 0 0 1 .72-4.564c0-.769.082-1.46.25-2.078a4.85 4.85 0 0 1 .719-1.578 3.21 3.21 0 0 1 1.187-1c.469-.226 1.008-.344 1.625-.344.477 0 .914.102 1.313.297.394.2.785.485 1.171.86v-4.703c0-.063.016-.118.047-.172.032-.051.094-.094.188-.125a1.23 1.23 0 0 1 .375-.078c.156-.02.351-.032.593-.032.239 0 .438.012.594.032.156.011.274.039.36.078.093.031.156.074.187.125a.29.29 0 0 1 .063.172ZM6.985-6.141c-.355-.437-.695-.77-1.015-1-.313-.238-.64-.359-.985-.359-.324 0-.601.086-.828.25-.23.156-.414.371-.547.64a3.467 3.467 0 0 0-.312.891 5.261 5.261 0 0 0-.094 1c0 .367.024.719.078 1.063.063.344.156.652.281.922.133.261.313.476.532.64.218.168.5.25.843.25.165 0 .329-.023.485-.078.156-.05.312-.129.469-.234.164-.114.336-.258.515-.438.176-.176.367-.394.578-.656Zm0 0"/></symbol><symbol overflow="visible" id="j"><path style="stroke:none" d="M3.656-.328a.281.281 0 0 1-.062.172.628.628 0 0 1-.203.125c-.094.031-.22.05-.375.062-.149.02-.34.032-.579.032C2.196.063 2 .05 1.845.03a1.615 1.615 0 0 1-.375-.062.587.587 0 0 1-.203-.125.325.325 0 0 1-.047-.172V-9c0-.063.015-.113.047-.156.039-.051.109-.094.203-.125.093-.04.218-.07.375-.094.156-.02.351-.031.593-.031.239 0 .43.011.579.031.156.023.28.055.375.094.093.031.16.074.203.125.039.043.062.094.062.156Zm.188-11.625c0 .492-.106.828-.313 1.015-.199.188-.57.282-1.11.282-.542 0-.913-.086-1.108-.266-.188-.187-.282-.515-.282-.984 0-.489.098-.828.297-1.016.195-.195.57-.297 1.125-.297.531 0 .895.094 1.094.281.195.18.297.508.297.985Zm0 0"/></symbol><symbol overflow="visible" id="k"><path style="stroke:none" d="M8.563-.297a.247.247 0 0 1-.094.203c-.063.055-.168.09-.313.11-.136.03-.34.046-.61.046a3.11 3.11 0 0 1-.64-.046.551.551 0 0 1-.281-.11c-.055-.05-.078-.117-.078-.203V-1a3.971 3.971 0 0 1-1.219.906c-.45.207-.95.313-1.5.313A4.06 4.06 0 0 1 2.563.03a2.794 2.794 0 0 1-1-.515 2.528 2.528 0 0 1-.641-.875C.766-1.711.687-2.125.687-2.594c0-.508.098-.953.297-1.328a2.38 2.38 0 0 1 .875-.922c.395-.238.88-.414 1.454-.531.582-.125 1.253-.188 2.015-.188h.844v-.515c0-.281-.027-.52-.078-.719a1.2 1.2 0 0 0-.266-.516 1.112 1.112 0 0 0-.516-.296 2.715 2.715 0 0 0-.765-.094 3.91 3.91 0 0 0-1.094.14 5.73 5.73 0 0 0-.844.297A6.427 6.427 0 0 0 2-6.969c-.168.094-.305.14-.406.14a.279.279 0 0 1-.188-.062.623.623 0 0 1-.14-.203 2.2 2.2 0 0 1-.11-.719c0-.207.016-.367.047-.484a.707.707 0 0 1 .188-.312c.093-.094.25-.196.468-.313a5.22 5.22 0 0 1 .797-.312c.301-.102.63-.18.985-.235a6.542 6.542 0 0 1 1.109-.094c.676 0 1.254.07 1.734.204.489.125.883.328 1.188.609.312.273.535.625.672 1.063.144.437.219.953.219 1.546ZM6.171-4.016H5.25c-.398 0-.734.032-1.016.094a1.932 1.932 0 0 0-.671.25 1.13 1.13 0 0 0-.376.422c-.085.168-.124.36-.124.578 0 .367.113.652.343.86.227.199.547.296.953.296.344 0 .657-.082.938-.25.289-.175.582-.437.875-.78Zm0 0"/></symbol><symbol overflow="visible" id="l"><path style="stroke:none" d="M6.328-1.188c0 .282-.023.5-.062.657-.032.156-.079.265-.141.328a.717.717 0 0 1-.25.172c-.117.039-.25.078-.406.11-.149.038-.309.066-.485.077-.18.02-.355.032-.53.032C3.96.188 3.538.124 3.187 0a1.96 1.96 0 0 1-.876-.547 2.475 2.475 0 0 1-.515-.969c-.106-.394-.156-.859-.156-1.39V-7.36H.594c-.117 0-.211-.07-.281-.22-.063-.155-.094-.413-.094-.78 0-.188.004-.344.015-.47.02-.132.047-.237.078-.312a.486.486 0 0 1 .126-.156.325.325 0 0 1 .171-.047h1.032v-1.937c0-.063.015-.117.046-.172.032-.05.094-.094.188-.125a1.23 1.23 0 0 1 .375-.078c.164-.02.363-.031.594-.031.238 0 .437.011.594.03.156.012.273.04.359.079.094.031.16.074.203.125a.29.29 0 0 1 .063.172v1.937h1.875c.062 0 .113.016.156.047.05.031.093.086.125.156.039.075.066.18.078.313.02.125.031.281.031.469 0 .367-.039.625-.11.78-.062.15-.155.22-.28.22H4.063v4.078c0 .48.07.84.218 1.078.145.23.41.344.797.344a1.584 1.584 0 0 0 .61-.11c.082-.031.148-.054.203-.078a.549.549 0 0 1 .156-.031.21.21 0 0 1 .11.031c.038.024.07.07.093.14.02.063.035.157.047.282.02.117.031.262.031.438Zm0 0"/></symbol><symbol overflow="visible" id="m"><path style="stroke:none" d="M6.75-8.203c0 .23-.008.422-.016.578a1.292 1.292 0 0 1-.062.344c-.024.086-.055.14-.094.172a.256.256 0 0 1-.156.046.587.587 0 0 1-.188-.03c-.062-.02-.136-.04-.218-.063a1.54 1.54 0 0 0-.578-.11c-.137 0-.274.028-.407.079-.136.054-.277.14-.422.265a2.905 2.905 0 0 0-.453.469 6.43 6.43 0 0 0-.5.703v5.422a.281.281 0 0 1-.062.172.628.628 0 0 1-.203.125c-.094.031-.22.05-.375.062-.149.02-.34.032-.579.032C2.196.063 2 .05 1.845.03a1.615 1.615 0 0 1-.375-.062.587.587 0 0 1-.203-.125.325.325 0 0 1-.047-.172v-8.688c0-.062.015-.117.047-.171a.319.319 0 0 1 .171-.126c.083-.03.192-.05.329-.062.132-.02.3-.031.5-.031.207 0 .379.011.515.031.133.012.239.031.313.063.07.03.125.074.156.124.031.055.047.11.047.172v1.079c.226-.32.441-.586.64-.797a3.7 3.7 0 0 1 .563-.5c.188-.125.367-.207.547-.25.176-.051.36-.079.547-.079.082 0 .172.008.265.016.094 0 .192.016.297.047.102.023.192.047.266.078.082.024.14.055.172.094a.23.23 0 0 1 .078.11c.02.03.035.085.047.155.008.063.015.165.015.297.008.137.016.325.016.563Zm0 0"/></symbol><symbol overflow="visible" id="n"><path style="stroke:none" d="M8.703-.5c.05.105.078.195.078.266 0 .074-.047.136-.14.187-.094.043-.235.067-.422.078-.18.02-.422.032-.735.032-.293 0-.527-.008-.703-.016a1.943 1.943 0 0 1-.422-.063.67.67 0 0 1-.218-.109.53.53 0 0 1-.11-.156L4.438-3.375 2.843-.281a.613.613 0 0 1-.11.156.514.514 0 0 1-.203.11c-.094.03-.226.05-.39.062-.168.008-.387.015-.657.015-.293 0-.523-.011-.687-.03C.629.02.504-.005.422-.048.348-.097.312-.16.312-.234c0-.07.024-.16.079-.266l2.39-4.281L.578-8.797a.903.903 0 0 1-.094-.281c0-.082.04-.145.125-.188.082-.05.211-.086.391-.109.188-.02.441-.031.766-.031.28 0 .504.008.671.015.176.012.313.028.407.047a.469.469 0 0 1 .328.25l1.531 2.906 1.531-2.906a.36.36 0 0 1 .079-.125.42.42 0 0 1 .187-.094c.082-.03.195-.05.344-.062.144-.02.343-.031.593-.031.29 0 .52.011.688.031.164.012.285.04.36.078.081.043.117.106.109.188 0 .086-.04.187-.11.312l-2.14 3.953Zm0 0"/></symbol><linearGradient id="a" gradientUnits="userSpaceOnUse" x1="732.645" y1="1324.47" x2="541.283" y2="1655.92" spreadMethod="reflect"><stop offset="0" style="stop-color:#613cd6;stop-opacity:1"/><stop offset=".35" style="stop-color:#e8325d;stop-opacity:1"/><stop offset=".65" style="stop-color:#ecbd5c;stop-opacity:1"/><stop offset="1" style="stop-color:#ed4948;stop-opacity:1"/></linearGradient><linearGradient id="b" gradientUnits="userSpaceOnUse" x1="729.92" y1="1772.84" x2="536.871" y2="2107.21" spreadMethod="reflect"><stop offset="0" style="stop-color:#613cd6;stop-opacity:1"/><stop offset=".35" style="stop-color:#e8325d;stop-opacity:1"/><stop offset=".65" style="stop-color:#ecbd5c;stop-opacity:1"/><stop offset="1" style="stop-color:#ed4948;stop-opacity:1"/></linearGradient><linearGradient id="c" gradientUnits="userSpaceOnUse" x1="212.33" y1="-48.049" x2="17.268" y2="289.81" spreadMethod="reflect"><stop offset="0" style="stop-color:#613cd6;stop-opacity:1"/><stop offset=".35" style="stop-color:#e8325d;stop-opacity:1"/><stop offset=".65" style="stop-color:#ecbd5c;stop-opacity:1"/><stop offset="1" style="stop-color:#ed4948;stop-opacity:1"/></linearGradient><linearGradient id="d" gradientUnits="userSpaceOnUse" x1="211.35" y1="-48.901" x2="18.525" y2="285.081" spreadMethod="reflect"><stop offset="0" style="stop-color:#613cd6;stop-opacity:1"/><stop offset=".35" style="stop-color:#e8325d;stop-opacity:1"/><stop offset=".65" style="stop-color:#ecbd5c;stop-opacity:1"/><stop offset="1" style="stop-color:#ed4948;stop-opacity:1"/></linearGradient><linearGradient id="e" gradientUnits="userSpaceOnUse" x1="504.741" y1="1251.12" x2="750.47" y2="2168.2" spreadMethod="reflect"><stop offset="0" style="stop-color:#613cd6;stop-opacity:1"/><stop offset=".35" style="stop-color:#e8325d;stop-opacity:1"/><stop offset=".65" style="stop-color:#ecbd5c;stop-opacity:1"/><stop offset="1" style="stop-color:#ed4948;stop-opacity:1"/></linearGradient><linearGradient id="f" gradientUnits="userSpaceOnUse" x1="557.679" y1="1448.69" x2="697.533" y2="1970.63" spreadMethod="reflect"><stop offset="0" style="stop-color:#613cd6;stop-opacity:1"/><stop offset=".35" style="stop-color:#e8325d;stop-opacity:1"/><stop offset=".65" style="stop-color:#ecbd5c;stop-opacity:1"/><stop offset="1" style="stop-color:#ed4948;stop-opacity:1"/></linearGradient></defs><path style="fill:none;stroke-width:68.75;stroke-linecap:butt;stroke-linejoin:miter;stroke:url(#a);stroke-miterlimit:8" d="m519.493 1375.464 224.549 219.613" transform="matrix(.03323 0 0 .03344 -4.386 -39.057)"/><path style="fill:none;stroke-width:68.75;stroke-linecap:butt;stroke-linejoin:miter;stroke:url(#b);stroke-miterlimit:8" d="m512.557 1825.554 231.014 219.497" transform="matrix(.03323 0 0 .03344 -4.386 -39.057)"/><path style="fill:none;stroke-width:68.75;stroke-linecap:butt;stroke-linejoin:miter;stroke:url(#c);stroke-miterlimit:8" d="m-.024.036 220.08 231.06" transform="matrix(.03323 0 0 -.03344 5.333 21.99)"/><path style="fill:none;stroke-width:68.75;stroke-linecap:butt;stroke-linejoin:miter;stroke:url(#d);stroke-miterlimit:8" d="m-.046-.02 220.198 225.804" transform="matrix(.03323 0 0 -.03344 20.318 21.98)"/><path style="fill:none;stroke-width:68.75;stroke-linecap:butt;stroke-linejoin:miter;stroke:url(#e);stroke-miterlimit:8" d="m184.787 1709.673 442.866-442.847 442.748 442.847-442.748 442.848Zm0 0" transform="matrix(.03323 0 0 .03344 -4.386 -39.057)"/><path style="fill:none;stroke-width:68.75;stroke-linecap:butt;stroke-linejoin:miter;stroke:url(#f);stroke-miterlimit:8" d="M512.087 1825.204c-63.838-63.781-63.838-167.28 0-231.061 63.837-63.898 167.294-63.898 231.014 0 63.838 63.781 63.838 167.28 0 231.06-63.72 63.782-167.177 63.782-231.014 0Zm0 0" transform="matrix(.03323 0 0 .03344 -4.386 -39.057)"/><g style="fill:#fff;fill-opacity:1"><use xlink:href="#g" x="35.461" y="24.713"/><use xlink:href="#h" x="52.769" y="24.713"/><use xlink:href="#i" x="62.738" y="24.713"/><use xlink:href="#j" x="73.365" y="24.713"/><use xlink:href="#g" x="78.228" y="24.713"/><use xlink:href="#k" x="95.536" y="24.713"/><use xlink:href="#l" x="105.128" y="24.713"/><use xlink:href="#m" x="111.993" y="24.713"/><use xlink:href="#j" x="119.033" y="24.713"/><use xlink:href="#n" x="123.896" y="24.713"/></g></svg>