<svg xmlns="http://www.w3.org/2000/svg" xmlns:xlink="http://www.w3.org/1999/xlink" width="146" height="42"><defs><symbol overflow="visible" id="g"><path style="stroke:none" d="M16.047-.344A.325.325 0 0 1 16-.172c-.031.055-.102.094-.203.125a2.37 2.37 0 0 1-.375.078c-.149.02-.34.032-.578.032-.242 0-.438-.012-.594-.032a2.37 2.37 0 0 1-.375-.078.378.378 0 0 1-.188-.125.26.26 0 0 1-.062-.172v-10.265h-.016L9.953-.36a.473.473 0 0 1-.125.218.554.554 0 0 1-.234.125 1.9 1.9 0 0 1-.39.063c-.157.008-.345.015-.563.015a4.58 4.58 0 0 1-.563-.03 1.856 1.856 0 0 1-.39-.063.848.848 0 0 1-.235-.14.38.38 0 0 1-.11-.188l-3.53-10.25h-.016V-.344a.281.281 0 0 1-.063.172c-.03.055-.101.094-.203.125a2.37 2.37 0 0 1-.375.078c-.148.02-.34.032-.578.032C2.348.063 2.156.05 2 .03a2.37 2.37 0 0 1-.375-.078c-.094-.031-.164-.07-.203-.125a.325.325 0 0 1-.047-.172v-11.234c0-.332.082-.586.25-.766.176-.176.414-.265.719-.265h1.672c.289 0 .539.027.75.078.218.043.406.12.562.234.156.117.285.266.39.453.102.188.196.418.282.688l2.719 7.515h.047l2.812-7.5c.094-.27.188-.5.281-.687.102-.188.22-.336.344-.453.133-.125.29-.207.469-.25.187-.051.398-.078.64-.078h1.735c.164 0 .312.027.437.078.133.043.239.11.313.203a.835.835 0 0 1 .187.312c.04.125.063.274.063.438Zm0 0"/></symbol><symbol overflow="visible" id="h"><path style="stroke:none" d="M9.25-4.938c0 .305-.07.528-.203.672-.137.149-.32.22-.547.22H3.219c0 .366.039.698.125 1 .082.304.219.562.406.78.195.211.445.371.75.485.3.105.664.156 1.094.156.426 0 .8-.031 1.125-.094a8.43 8.43 0 0 0 .843-.203c.239-.07.43-.14.579-.203.156-.063.285-.094.39-.094.051 0 .098.012.14.031a.23.23 0 0 1 .095.126c.03.054.05.136.062.25a4.599 4.599 0 0 1 0 .766l-.031.265a.503.503 0 0 1-.063.172.443.443 0 0 1-.093.14c-.043.043-.157.106-.344.188-.188.074-.43.152-.719.234-.293.07-.633.133-1.016.188-.375.05-.777.078-1.203.078-.773 0-1.449-.094-2.03-.281a3.674 3.674 0 0 1-1.454-.891c-.387-.395-.68-.895-.875-1.5C.812-3.055.719-3.766.719-4.578c0-.77.097-1.461.297-2.078.207-.625.5-1.149.875-1.578.382-.438.851-.77 1.406-1a4.853 4.853 0 0 1 1.86-.344c.718 0 1.331.11 1.843.328.52.21.945.508 1.281.89.332.376.578.825.735 1.344.156.524.234 1.09.234 1.704Zm-2.375-.687c.02-.688-.121-1.227-.422-1.625-.293-.395-.746-.594-1.36-.594-.312 0-.585.063-.812.188-.23.117-.422.273-.578.468-.156.2-.277.434-.36.704a3.452 3.452 0 0 0-.124.859Zm0 0"/></symbol><symbol overflow="visible" id="i"><path style="stroke:none" d="M9.469-.328a.3.3 0 0 1-.063.187.373.373 0 0 1-.172.11c-.074.031-.18.05-.312.062-.125.02-.29.032-.485.032-.21 0-.382-.012-.515-.032a1.223 1.223 0 0 1-.313-.062.483.483 0 0 1-.171-.11.351.351 0 0 1-.047-.187v-.969c-.45.48-.918.856-1.407 1.125a3.443 3.443 0 0 1-1.625.39c-.668 0-1.23-.124-1.687-.374a3.242 3.242 0 0 1-1.125-1.032 4.741 4.741 0 0 1-.625-1.53 8.755 8.755 0 0 1-.188-1.845c0-.769.082-1.46.25-2.078a4.85 4.85 0 0 1 .72-1.578 3.21 3.21 0 0 1 1.187-1c.476-.238 1.023-.36 1.64-.36.477 0 .914.102 1.313.298.394.199.789.492 1.187.875v-4.703c0-.07.016-.13.047-.172.04-.051.11-.094.203-.125.094-.04.219-.07.375-.094.157-.02.352-.031.594-.031.238 0 .438.011.594.031.156.023.273.055.36.094.093.031.16.074.202.125a.25.25 0 0 1 .063.172ZM7.03-6.141c-.355-.437-.695-.77-1.015-1a1.628 1.628 0 0 0-1-.359c-.325 0-.602.078-.829.234-.23.157-.417.371-.562.641a3.754 3.754 0 0 0-.313.906 5.261 5.261 0 0 0-.093 1c0 .367.023.719.078 1.063.062.344.16.652.297.922.133.261.312.476.531.64.219.168.5.25.844.25.164 0 .328-.023.484-.078a2.19 2.19 0 0 0 .484-.234c.165-.114.336-.258.516-.438.176-.176.367-.394.578-.656Zm0 0"/></symbol><symbol overflow="visible" id="j"><path style="stroke:none" d="M3.688-.328a.281.281 0 0 1-.063.172.628.628 0 0 1-.203.125c-.094.031-.219.05-.375.062-.156.02-.356.032-.594.032-.242 0-.437-.012-.594-.032a1.615 1.615 0 0 1-.375-.062.587.587 0 0 1-.203-.125.325.325 0 0 1-.047-.172V-9c0-.063.016-.117.047-.172.04-.05.11-.094.203-.125a1.23 1.23 0 0 1 .375-.078c.157-.02.352-.031.594-.031.238 0 .438.011.594.031.156.012.281.04.375.078.094.031.16.074.203.125A.29.29 0 0 1 3.688-9Zm.171-11.64c0 .5-.101.843-.296 1.03-.2.188-.575.282-1.126.282-.554 0-.921-.086-1.109-.266-.187-.187-.281-.52-.281-1 0-.488.098-.828.297-1.015.195-.196.57-.297 1.125-.297.539 0 .906.093 1.094.28.195.188.296.517.296.985Zm0 0"/></symbol><symbol overflow="visible" id="k"><path style="stroke:none" d="M8.625-.297a.247.247 0 0 1-.094.203c-.062.055-.168.09-.312.11-.137.03-.34.046-.61.046a3.11 3.11 0 0 1-.64-.046c-.137-.02-.235-.055-.297-.11-.055-.05-.078-.117-.078-.203V-1a3.971 3.971 0 0 1-1.219.906C4.915.113 4.41.22 3.859.22c-.468 0-.898-.063-1.28-.188a2.794 2.794 0 0 1-1-.515 2.43 2.43 0 0 1-.657-.891 2.975 2.975 0 0 1-.235-1.219c0-.508.098-.953.297-1.328a2.34 2.34 0 0 1 .891-.922c.395-.25.883-.43 1.469-.547a10.713 10.713 0 0 1 2.031-.171h.844v-.532c0-.27-.028-.504-.078-.703a1.143 1.143 0 0 0-.282-.516 1.118 1.118 0 0 0-.5-.296c-.21-.07-.468-.11-.78-.11a3.91 3.91 0 0 0-1.095.14c-.324.095-.609.2-.859.313a6.427 6.427 0 0 0-.61.297c-.167.086-.304.125-.406.125a.347.347 0 0 1-.203-.062.378.378 0 0 1-.125-.188 2.027 2.027 0 0 1-.078-.312 2.321 2.321 0 0 1-.031-.422c0-.195.016-.352.047-.469a.75.75 0 0 1 .172-.312c.093-.102.254-.207.484-.313a5.22 5.22 0 0 1 .797-.312 6.625 6.625 0 0 1 2.125-.344c.676 0 1.254.07 1.734.203.489.137.89.344 1.203.625.313.273.536.625.672 1.063.145.43.219.945.219 1.546ZM6.219-4.03H5.28c-.398 0-.734.031-1.015.093a2.097 2.097 0 0 0-.672.266c-.18.117-.309.258-.39.422-.075.168-.11.36-.11.578 0 .356.113.637.344.844.226.21.546.312.953.312.343 0 .656-.082.937-.25.29-.175.586-.437.89-.78Zm0 0"/></symbol><symbol overflow="visible" id="l"><path style="stroke:none" d="M6.36-1.188c0 .282-.016.5-.048.657-.03.156-.078.265-.14.328a.892.892 0 0 1-.266.172 2.57 2.57 0 0 1-.39.11c-.157.038-.325.066-.5.077-.18.02-.356.032-.532.032-.492 0-.918-.063-1.28-.188a2.08 2.08 0 0 1-.892-.547 2.475 2.475 0 0 1-.515-.969c-.106-.394-.156-.859-.156-1.39V-7.36H.609c-.125 0-.226-.079-.296-.235-.063-.156-.094-.41-.094-.765 0-.188.004-.344.015-.47.02-.132.047-.237.078-.312a.486.486 0 0 1 .126-.156c.05-.039.109-.062.171-.062h1.032v-1.938c0-.062.015-.117.046-.172.04-.05.11-.094.204-.125a1.23 1.23 0 0 1 .375-.078c.164-.02.363-.031.593-.031.239 0 .438.012.594.031.164.012.29.04.375.078.094.031.16.074.203.125a.29.29 0 0 1 .063.172v1.938h1.89c.063 0 .114.023.157.062.05.031.093.086.125.156.03.075.05.18.062.313.02.125.031.281.031.469 0 .355-.03.609-.093.765-.063.157-.157.235-.282.235h-1.89v4.078c0 .469.07.824.218 1.062.145.242.41.36.797.36a1.837 1.837 0 0 0 .625-.11c.082-.031.149-.054.204-.078a.549.549 0 0 1 .156-.031.21.21 0 0 1 .11.031c.038.024.066.07.077.14.02.063.035.153.047.266.02.118.031.266.031.454Zm0 0"/></symbol><symbol overflow="visible" id="m"><path style="stroke:none" d="M6.813-8.219c0 .242-.012.434-.032.578a1.539 1.539 0 0 1-.062.36c-.024.086-.055.14-.094.172a.256.256 0 0 1-.156.046.587.587 0 0 1-.188-.03c-.062-.02-.136-.04-.218-.063a1.676 1.676 0 0 0-.266-.078.99.99 0 0 0-.719.046 2.053 2.053 0 0 0-.437.25 2.905 2.905 0 0 0-.454.47c-.156.198-.324.437-.5.718v5.422a.281.281 0 0 1-.062.172.628.628 0 0 1-.203.125c-.094.031-.219.05-.375.062-.156.02-.356.032-.594.032-.242 0-.437-.012-.594-.032a1.615 1.615 0 0 1-.375-.062.587.587 0 0 1-.203-.125.325.325 0 0 1-.047-.172v-8.688c0-.07.016-.129.047-.171a.319.319 0 0 1 .172-.126c.082-.03.188-.05.313-.062.132-.02.304-.031.515-.031.207 0 .38.011.516.031.133.012.238.031.312.063.07.03.125.074.157.124a.289.289 0 0 1 .046.172v1.079c.227-.32.442-.586.641-.797a3.85 3.85 0 0 1 .578-.516c.188-.125.367-.207.547-.25.188-.05.367-.078.547-.078.082 0 .172.008.266.015.101.012.207.028.312.047.102.024.192.047.266.079.082.03.14.062.172.093a.23.23 0 0 1 .078.11c.02.043.035.101.047.171.007.063.02.165.03.297.009.137.016.32.016.547Zm0 0"/></symbol><symbol overflow="visible" id="n"><path style="stroke:none" d="M8.766-.5c.05.105.078.195.078.266 0 .074-.047.136-.14.187-.095.043-.235.067-.423.078-.187.02-.437.032-.75.032-.293 0-.527-.008-.703-.016a1.943 1.943 0 0 1-.422-.063.67.67 0 0 1-.218-.109.295.295 0 0 1-.11-.156l-1.61-3.094L2.86-.281a.345.345 0 0 1-.109.156.514.514 0 0 1-.203.11c-.094.03-.23.05-.406.062-.168.008-.387.015-.657.015-.28 0-.507-.011-.671-.03C.644.02.52-.005.438-.048.362-.097.32-.16.311-.234c0-.07.032-.16.094-.266l2.39-4.281L.579-8.797a.885.885 0 0 1-.094-.297c0-.082.04-.144.125-.187.082-.051.22-.082.407-.094.187-.02.437-.031.75-.031.289 0 .52.008.687.015.176.012.313.028.406.047.102.012.176.04.22.078.038.043.077.102.108.172l1.547 2.89 1.547-2.89a.617.617 0 0 1 .078-.14.42.42 0 0 1 .188-.094c.082-.031.195-.05.344-.063a14.187 14.187 0 0 1 1.281 0c.176.012.3.043.375.094.082.043.117.106.11.188 0 .074-.04.18-.11.312L6.39-4.859Zm0 0"/></symbol><linearGradient id="a" gradientUnits="userSpaceOnUse" x1="732.645" y1="156.47" x2="541.283" y2="487.92" spreadMethod="reflect"><stop offset="0" style="stop-color:#613cd6;stop-opacity:1"/><stop offset=".35" style="stop-color:#e8325d;stop-opacity:1"/><stop offset=".65" style="stop-color:#ecbd5c;stop-opacity:1"/><stop offset="1" style="stop-color:#ed4948;stop-opacity:1"/></linearGradient><linearGradient id="b" gradientUnits="userSpaceOnUse" x1="729.92" y1="605.84" x2="536.871" y2="940.21" spreadMethod="reflect"><stop offset="0" style="stop-color:#613cd6;stop-opacity:1"/><stop offset=".35" style="stop-color:#e8325d;stop-opacity:1"/><stop offset=".65" style="stop-color:#ecbd5c;stop-opacity:1"/><stop offset="1" style="stop-color:#ed4948;stop-opacity:1"/></linearGradient><linearGradient id="c" gradientUnits="userSpaceOnUse" x1="212.33" y1="-48.049" x2="17.268" y2="289.81" spreadMethod="reflect"><stop offset="0" style="stop-color:#613cd6;stop-opacity:1"/><stop offset=".35" style="stop-color:#e8325d;stop-opacity:1"/><stop offset=".65" style="stop-color:#ecbd5c;stop-opacity:1"/><stop offset="1" style="stop-color:#ed4948;stop-opacity:1"/></linearGradient><linearGradient id="d" gradientUnits="userSpaceOnUse" x1="211.35" y1="-48.901" x2="18.525" y2="285.081" spreadMethod="reflect"><stop offset="0" style="stop-color:#613cd6;stop-opacity:1"/><stop offset=".35" style="stop-color:#e8325d;stop-opacity:1"/><stop offset=".65" style="stop-color:#ecbd5c;stop-opacity:1"/><stop offset="1" style="stop-color:#ed4948;stop-opacity:1"/></linearGradient><linearGradient id="e" gradientUnits="userSpaceOnUse" x1="504.741" y1="83.986" x2="750.47" y2="1001.06" spreadMethod="reflect"><stop offset="0" style="stop-color:#613cd6;stop-opacity:1"/><stop offset=".35" style="stop-color:#e8325d;stop-opacity:1"/><stop offset=".65" style="stop-color:#ecbd5c;stop-opacity:1"/><stop offset="1" style="stop-color:#ed4948;stop-opacity:1"/></linearGradient><linearGradient id="f" gradientUnits="userSpaceOnUse" x1="557.679" y1="281.551" x2="697.533" y2="803.494" spreadMethod="reflect"><stop offset="0" style="stop-color:#613cd6;stop-opacity:1"/><stop offset=".35" style="stop-color:#e8325d;stop-opacity:1"/><stop offset=".65" style="stop-color:#ecbd5c;stop-opacity:1"/><stop offset="1" style="stop-color:#ed4948;stop-opacity:1"/></linearGradient></defs><path style="fill:none;stroke-width:68.75;stroke-linecap:butt;stroke-linejoin:miter;stroke:url(#a);stroke-miterlimit:8" d="m519.525 207.533 224.528 219.555" transform="matrix(.03346 0 0 .03347 -4.416 0)"/><path style="fill:none;stroke-width:68.75;stroke-linecap:butt;stroke-linejoin:miter;stroke:url(#b);stroke-miterlimit:8" d="m512.519 658.548 231.067 219.555" transform="matrix(.03346 0 0 .03347 -4.416 0)"/><path style="fill:none;stroke-width:68.75;stroke-linecap:butt;stroke-linejoin:miter;stroke:url(#c);stroke-miterlimit:8" d="M.044.047 220.136 231.04" transform="matrix(.03346 0 0 -.03347 5.37 22.04)"/><path style="fill:none;stroke-width:68.75;stroke-linecap:butt;stroke-linejoin:miter;stroke:url(#d);stroke-miterlimit:8" d="m-.03-.015 220.09 225.858" transform="matrix(.03346 0 0 -.03347 20.458 22.03)"/><path style="fill:none;stroke-width:68.75;stroke-linecap:butt;stroke-linejoin:miter;stroke:url(#e);stroke-miterlimit:8" d="M184.775 542.526 627.644 99.681l442.751 442.845-442.751 442.845Zm0 0" transform="matrix(.03346 0 0 .03347 -4.416 0)"/><path style="fill:none;stroke-width:68.75;stroke-linecap:butt;stroke-linejoin:miter;stroke:url(#f);stroke-miterlimit:8" d="M512.052 658.081c-63.75-63.847-63.75-167.263 0-231.11 63.867-63.847 167.316-63.847 231.067 0 63.867 63.847 63.867 167.263 0 231.11-63.75 63.847-167.2 63.847-231.067 0Zm0 0" transform="matrix(.03346 0 0 .03347 -4.416 0)"/><g style="fill:#000;fill-opacity:1"><use xlink:href="#g" x="35.707" y="24.733"/><use xlink:href="#h" x="53.135" y="24.733"/><use xlink:href="#i" x="63.173" y="24.733"/><use xlink:href="#j" x="73.873" y="24.733"/><use xlink:href="#g" x="78.771" y="24.733"/><use xlink:href="#k" x="96.199" y="24.733"/><use xlink:href="#l" x="105.857" y="24.733"/><use xlink:href="#m" x="112.77" y="24.733"/><use xlink:href="#j" x="119.858" y="24.733"/><use xlink:href="#n" x="124.755" y="24.733"/></g></svg>